<?xml version="1.0" encoding="UTF-8"?>
<svg version="1.1" xmlns="http://www.w3.org/2000/svg" width="70" height="62">
<path d="M0 0 C14.19 0 28.38 0 43 0 C43 1.98 43 3.96 43 6 C43.99 6 44.98 6 46 6 C46 20.19 46 34.38 46 49 C46.99 49.33 47.98 49.66 49 50 C30.52 50 12.04 50 -7 50 C-6.01 49.34 -5.02 48.68 -4 48 C-3.41518879 45.11404054 -3.41518879 45.11404054 -3.3125 41.875 C-3.24675781 40.77929688 -3.18101563 39.68359375 -3.11328125 38.5546875 C-3.07589844 37.71164063 -3.03851563 36.86859375 -3 36 C-4.32 36 -5.64 36 -7 36 C-7 33.03 -7 30.06 -7 27 C-5.68 27 -4.36 27 -3 27 C-3 25.35 -3 23.7 -3 22 C-4.32 22 -5.64 22 -7 22 C-7 19.36 -7 16.72 -7 14 C-5.68 14 -4.36 14 -3 14 C-3 11.36 -3 8.72 -3 6 C-2.01 6 -1.02 6 0 6 C0 4.02 0 2.04 0 0 Z M2 1 C1.67 2.32 1.34 3.64 1 5 C2.21071796 6.43924868 2.21071796 6.43924868 5.78540039 6.11352539 C7.47282729 6.11336622 9.16025905 6.10766917 10.84765625 6.09765625 C11.7340831 6.0962413 12.62050995 6.09482635 13.53379822 6.09336853 C16.37673254 6.08775215 19.21958931 6.07519691 22.0625 6.0625 C23.98502491 6.05748711 25.90755104 6.05292384 27.83007812 6.04882812 C32.55341549 6.03777741 37.27669458 6.02050183 42 6 C42 4.35 42 2.7 42 1 C28.8 1 15.6 1 2 1 Z M-2 7 C-2 9.31 -2 11.62 -2 14 C-0.68 14 0.64 14 2 14 C2 16.64 2 19.28 2 22 C0.68 22 -0.64 22 -2 22 C-2 23.65 -2 25.3 -2 27 C-0.02 27.99 -0.02 27.99 2 29 C2 31.31 2 33.62 2 36 C0.68 36 -0.64 36 -2 36 C-2 40.29 -2 44.58 -2 49 C1.3 49 4.6 49 8 49 C8.33 45.04 8.66 41.08 9 37 C11.64 37 14.28 37 17 37 C17.33 40.96 17.66 44.92 18 49 C26.91 49 35.82 49 45 49 C45 35.14 45 21.28 45 7 C29.49 7 13.98 7 -2 7 Z M-6 15 C-6 16.98 -6 18.96 -6 21 C-3.69 21 -1.38 21 1 21 C1 19.02 1 17.04 1 15 C-1.31 15 -3.62 15 -6 15 Z M-6 29 C-6 30.98 -6 32.96 -6 35 C-3.69 35 -1.38 35 1 35 C1 33.02 1 31.04 1 29 C-1.31 29 -3.62 29 -6 29 Z M10 38 C10 41.63 10 45.26 10 49 C11.99954746 49.04254356 14.00041636 49.04080783 16 49 C17.25949049 47.96593327 17.25949049 47.96593327 17.09765625 45.71484375 C17.08605469 44.79832031 17.07445312 43.88179687 17.0625 42.9375 C17.04896484 41.55884766 17.04896484 41.55884766 17.03515625 40.15234375 C17.02355469 39.44207031 17.01195312 38.73179688 17 38 C14.69 38 12.38 38 10 38 Z " fill="#B7B7B7" transform="translate(14,7)"/>
<path d="M0 0 C5.61 0 11.22 0 17 0 C17 2.97 17 5.94 17 9 C11.39 9 5.78 9 0 9 C0 6.03 0 3.06 0 0 Z M1 2 C1 3.98 1 5.96 1 8 C5.95 8 10.9 8 16 8 C16 6.02 16 4.04 16 2 C11.05 2 6.1 2 1 2 Z " fill="#BDBDBD" transform="translate(38,34)"/>
<path d="M0 0 C0.721875 0.00257812 1.44375 0.00515625 2.1875 0.0078125 C2.909375 0.00523438 3.63125 0.00265625 4.375 0 C6.1875 0.1328125 6.1875 0.1328125 7.1875 1.1328125 C7.25994053 3.15245449 7.27127188 5.17448374 7.25 7.1953125 C7.24097656 8.30003906 7.23195313 9.40476562 7.22265625 10.54296875 C7.21105469 11.39761719 7.19945312 12.25226562 7.1875 13.1328125 C6.1975 13.6278125 6.1975 13.6278125 5.1875 14.1328125 C5.5175 10.1728125 5.8475 6.2128125 6.1875 2.1328125 C3.8775 2.1328125 1.5675 2.1328125 -0.8125 2.1328125 C-0.8125 5.7628125 -0.8125 9.3928125 -0.8125 13.1328125 C-1.4725 13.1328125 -2.1325 13.1328125 -2.8125 13.1328125 C-2.83936553 11.15371852 -2.85883375 9.17452279 -2.875 7.1953125 C-2.88660156 6.09316406 -2.89820312 4.99101563 -2.91015625 3.85546875 C-2.77917266 0.20364627 -2.77917266 0.20364627 0 0 Z " fill="#C8C8C8" transform="translate(24.8125,42.8671875)"/>
<path d="M0 0 C5.61 0 11.22 0 17 0 C17 2.64 17 5.28 17 8 C11.39 8 5.78 8 0 8 C0 5.36 0 2.72 0 0 Z M1 1 C1 2.98 1 4.96 1 7 C5.95 7 10.9 7 16 7 C16 5.02 16 3.04 16 1 C11.05 1 6.1 1 1 1 Z " fill="#AEAEAE" transform="translate(38,21)"/>
<path d="M0 0 C3.96 0 7.92 0 12 0 C12.04241723 2.33294775 12.04092937 4.66702567 12 7 C11 8 11 8 8.49609375 8.09765625 C6.98208984 8.08025391 6.98208984 8.08025391 5.4375 8.0625 C4.42558594 8.05347656 3.41367187 8.04445313 2.37109375 8.03515625 C1.58863281 8.02355469 0.80617188 8.01195312 0 8 C0 5.36 0 2.72 0 0 Z M1 1 C1 2.98 1 4.96 1 7 C4.3 7 7.6 7 11 7 C11 5.02 11 3.04 11 1 C7.7 1 4.4 1 1 1 Z " fill="#C0C0C0" transform="translate(21,28)"/>
<path d="M0 0 C2.97 0 5.94 0 9 0 C9.79953138 3.28696233 10.09658936 4.71023192 9 8 C8.67 8 8.34 8 8 8 C8 6.02 8 4.04 8 2 C5.69 2 3.38 2 1 2 C0.67 1.34 0.34 0.68 0 0 Z " fill="#CBCBCB" transform="translate(7,34)"/>
<path d="" fill="#C9C9C9" transform="translate(0,0)"/>
</svg>
