<?xml version="1.0" encoding="UTF-8"?>
<svg version="1.1" xmlns="http://www.w3.org/2000/svg" width="75" height="68">
<path d="M0 0 C17.49 0 34.98 0 53 0 C53 4.62 53 9.24 53 14 C54.32 14.33 55.64 14.66 57 15 C57 16.32 57 17.64 57 19 C55.68 19 54.36 19 53 19 C53 23.62 53 28.24 53 33 C54.32 33 55.64 33 57 33 C57 34.32 57 35.64 57 37 C55.68 37 54.36 37 53 37 C53 41.62 53 46.24 53 51 C53.66 51 54.32 51 55 51 C54.505 51.99 54.505 51.99 54 53 C35.52 52.67 17.04 52.34 -2 52 C-1.01 51.505 -1.01 51.505 0 51 C0 46.38 0 41.76 0 37 C-1.32 37 -2.64 37 -4 37 C-4 35.68 -4 34.36 -4 33 C-2.68 33 -1.36 33 0 33 C0 28.38 0 23.76 0 19 C-1.32 19 -2.64 19 -4 19 C-4 17.68 -4 16.36 -4 15 C-2.68 15 -1.36 15 0 15 C0 10.05 0 5.1 0 0 Z M1 1 C1 5.62 1 10.24 1 15 C2.32 15 3.64 15 5 15 C5 11.7 5 8.4 5 5 C10.61 5 16.22 5 22 5 C21.73958333 7.31119792 21.47916667 9.62239583 21.21875 11.93359375 C21.05543721 13.4639499 21.05543721 13.4639499 21 15 C22.65 15 24.3 15 26 15 C26 10.38 26 5.76 26 1 C17.75 1 9.5 1 1 1 Z M27 1 C27 5.62 27 10.24 27 15 C28.32 15 29.64 15 31 15 C31 11.7 31 8.4 31 5 C36.28 5.33 41.56 5.66 47 6 C47 8.97 47 11.94 47 15 C48.32 15 49.64 15 51 15 C51 10.38 51 5.76 51 1 C43.08 1 35.16 1 27 1 Z M6 6 C6 8.97 6 11.94 6 15 C10.62 15 15.24 15 20 15 C20 12.03 20 9.06 20 6 C15.38 6 10.76 6 6 6 Z M32 6 C32 8.97 32 11.94 32 15 C36.62 15 41.24 15 46 15 C46 12.03 46 9.06 46 6 C41.38 6 36.76 6 32 6 Z M-3 16 C-3 16.66 -3 17.32 -3 18 C16.47 18 35.94 18 56 18 C56 17.34 56 16.68 56 16 C36.53 16 17.06 16 -3 16 Z M1 19 C1 23.62 1 28.24 1 33 C2.32 33 3.64 33 5 33 C5 29.7 5 26.4 5 23 C10.61 23 16.22 23 22 23 C22 26.3 22 29.6 22 33 C23.32 33 24.64 33 26 33 C26 28.38 26 23.76 26 19 C17.75 19 9.5 19 1 19 Z M27 19 C27 23.62 27 28.24 27 33 C28.32 33 29.64 33 31 33 C31 29.7 31 26.4 31 23 C36.28 23.33 41.56 23.66 47 24 C47 26.64 47 29.28 47 32 C48.32 32.33 49.64 32.66 51 33 C51 28.38 51 23.76 51 19 C43.08 19 35.16 19 27 19 Z M6 24 C6 26.97 6 29.94 6 33 C10.62 33 15.24 33 20 33 C20 30.03 20 27.06 20 24 C15.38 24 10.76 24 6 24 Z M32 24 C32 26.97 32 29.94 32 33 C36.62 33 41.24 33 46 33 C46 30.03 46 27.06 46 24 C41.38 24 36.76 24 32 24 Z M-3 34 C-3 34.66 -3 35.32 -3 36 C16.47 36 35.94 36 56 36 C55.505 35.01 55.505 35.01 55 34 C35.86 34 16.72 34 -3 34 Z M1 38 C0.92741054 40.18639453 0.91626217 42.37500389 0.9375 44.5625 C0.958125 46.686875 0.97875 48.81125 1 51 C7.6 51 14.2 51 21 51 C21 47.04 21 43.08 21 39 C24.3 39 27.6 39 31 39 C31 42.96 31 46.92 31 51 C37.93 51 44.86 51 52 51 C52 46.38 52 41.76 52 37 C44.89754492 36.97535844 37.79511449 36.957168 30.69262695 36.94506836 C28.27432828 36.94002651 25.85603267 36.93319322 23.43774414 36.92456055 C19.97020717 36.91248843 16.50271034 36.90677037 13.03515625 36.90234375 C11.94662857 36.89718246 10.85810089 36.89202118 9.73658752 36.88670349 C8.73562546 36.88662796 7.73466339 36.88655243 6.70336914 36.88647461 C5.81734512 36.884254 4.93132111 36.88203339 4.01844788 36.87974548 C2.0030131 36.77571959 2.0030131 36.77571959 1 38 Z M23 40 C23 43.63 23 47.26 23 51 C25.31 51 27.62 51 30 51 C30 47.37 30 43.74 30 40 C27.69 40 25.38 40 23 40 Z " fill="#B0B0B0" transform="translate(10,8)"/>
<path d="M0 0 C1.23556641 0.01740234 1.23556641 0.01740234 2.49609375 0.03515625 C3.32238281 0.04417969 4.14867187 0.05320313 5 0.0625 C5.63808594 0.07410156 6.27617188 0.08570313 6.93359375 0.09765625 C6.93359375 2.40765625 6.93359375 4.71765625 6.93359375 7.09765625 C5.45452483 7.12454841 3.97531892 7.14400246 2.49609375 7.16015625 C1.26052734 7.17755859 1.26052734 7.17755859 0 7.1953125 C-2.06640625 7.09765625 -2.06640625 7.09765625 -3.06640625 6.09765625 C-3.19140625 3.59765625 -3.19140625 3.59765625 -3.06640625 1.09765625 C-2.06640625 0.09765625 -2.06640625 0.09765625 0 0 Z M-1.06640625 2.09765625 C-1.06640625 3.08765625 -1.06640625 4.07765625 -1.06640625 5.09765625 C1.24359375 5.09765625 3.55359375 5.09765625 5.93359375 5.09765625 C5.93359375 4.10765625 5.93359375 3.11765625 5.93359375 2.09765625 C3.62359375 2.09765625 1.31359375 2.09765625 -1.06640625 2.09765625 Z " fill="#C7C7C7" transform="translate(50.06640625,48.90234375)"/>
<path d="M0 0 C1.47906892 -0.02689216 2.95827483 -0.04634621 4.4375 -0.0625 C5.26121094 -0.07410156 6.08492187 -0.08570313 6.93359375 -0.09765625 C9 0 9 0 10 1 C10.125 3.5 10.125 3.5 10 6 C9 7 9 7 6.93359375 7.09765625 C6.10988281 7.08605469 5.28617188 7.07445312 4.4375 7.0625 C3.61121094 7.05347656 2.78492188 7.04445313 1.93359375 7.03515625 C1.29550781 7.02355469 0.65742188 7.01195312 0 7 C0 4.69 0 2.38 0 0 Z M1 2 C1 2.99 1 3.98 1 5 C3.31 5 5.62 5 8 5 C8 4.01 8 3.02 8 2 C5.69 2 3.38 2 1 2 Z " fill="#C6C6C6" transform="translate(16,49)"/>
</svg>
