<?xml version="1.0" encoding="UTF-8"?>
<svg version="1.1" xmlns="http://www.w3.org/2000/svg" width="78" height="69">
<path d="M0 0 C0 4.95 0 9.9 0 15 C1.32 15 2.64 15 4 15 C4.05534912 15.98919434 4.11069824 16.97838867 4.16772461 17.99755859 C4.37390875 21.66171962 4.58585565 25.32552835 4.79956055 28.98925781 C4.89130792 30.57608142 4.9814846 32.16299664 5.07006836 33.75 C5.19754457 36.02890424 5.33063485 38.3074211 5.46484375 40.5859375 C5.52272316 41.65320572 5.52272316 41.65320572 5.58177185 42.74203491 C5.76642661 46.49596342 5.76642661 46.49596342 7 50 C-13.13 50 -33.26 50 -54 50 C-53.67 43.07 -53.34 36.14 -53 29 C-52.34 29 -51.68 29 -51 29 C-51 24.38 -51 19.76 -51 15 C-49.68 15 -48.36 15 -47 15 C-47 12.69 -47 10.38 -47 8 C-46.01 8 -45.02 8 -44 8 C-44 5.69 -44 3.38 -44 1 C-38.055183 0.85728188 -32.1103587 0.71487298 -26.16552734 0.57275391 C-24.14208779 0.52433693 -22.11865028 0.47583463 -20.09521484 0.42724609 C-17.19108602 0.35752424 -14.28695006 0.28810667 -11.3828125 0.21875 C-10.47443634 0.19687622 -9.56606018 0.17500244 -8.63015747 0.15246582 C-7.78943695 0.13244507 -6.94871643 0.11242432 -6.08251953 0.09179688 C-4.96999313 0.06514954 -4.96999313 0.06514954 -3.83499146 0.03796387 C-2.55687184 0.01152104 -1.27839312 0 0 0 Z M-43 2 C-43 3.65 -43 5.3 -43 7 C-33.21775739 6.37514309 -23.64205883 4.68656475 -14 3 C-14 2.67 -14 2.34 -14 2 C-23.57 2 -33.14 2 -43 2 Z M-10.23950195 2.64257812 C-11.03995438 2.78272339 -11.8404068 2.92286865 -12.66511536 3.06726074 C-13.5142601 3.2203772 -14.36340485 3.37349365 -15.23828125 3.53125 C-16.55943184 3.76430847 -16.55943184 3.76430847 -17.90727234 4.0020752 C-20.70973982 4.49738997 -23.5111136 4.99861072 -26.3125 5.5 C-28.21672766 5.83763017 -30.12102384 6.17487416 -32.02539062 6.51171875 C-36.68439952 7.3366731 -41.34243669 8.16692446 -46 9 C-46 10.98 -46 12.96 -46 15 C-42.7 15 -39.4 15 -36 15 C-36 26.22 -36 37.44 -36 49 C-34.68 49 -33.36 49 -32 49 C-32 44.05 -32 39.1 -32 34 C-26.39 34 -20.78 34 -15 34 C-15 38.95 -15 43.9 -15 49 C-14.01 49 -13.02 49 -12 49 C-12 37.78 -12 26.56 -12 15 C-8.37 15 -4.74 15 -1 15 C-1 10.71 -1 6.42 -1 2 C-4.39576302 2 -6.99895023 2.06648004 -10.23950195 2.64257812 Z M-50 16 C-50 20.29 -50 24.58 -50 29 C-45.71 29 -41.42 29 -37 29 C-37 24.71 -37 20.42 -37 16 C-41.29 16 -45.58 16 -50 16 Z M-10 16 C-10 20.29 -10 24.58 -10 29 C-7.0609375 29.0309375 -7.0609375 29.0309375 -4.0625 29.0625 C-2.40927734 29.07990234 -2.40927734 29.07990234 -0.72265625 29.09765625 C1.91447634 29.31262571 1.91447634 29.31262571 3 28 C3.09851171 26.16884117 3.12972629 24.33380067 3.125 22.5 C3.12757812 21.4996875 3.13015625 20.499375 3.1328125 19.46875 C3.27870382 17.05600378 3.27870382 17.05600378 2 16 C-0.01964199 15.92755947 -2.04167124 15.91622812 -4.0625 15.9375 C-7.0015625 15.9684375 -7.0015625 15.9684375 -10 16 Z M-52 30 C-52.02683987 32.97922593 -52.04676037 35.95821295 -52.0625 38.9375 C-52.07087891 39.78763672 -52.07925781 40.63777344 -52.08789062 41.51367188 C-52.09111328 42.32255859 -52.09433594 43.13144531 -52.09765625 43.96484375 C-52.10289307 44.7137085 -52.10812988 45.46257324 -52.11352539 46.23413086 C-52.19341752 48.02667739 -52.19341752 48.02667739 -51 49 C-48.64686445 49.07271741 -46.29166332 49.08370868 -43.9375 49.0625 C-40.5034375 49.0315625 -40.5034375 49.0315625 -37 49 C-37 42.73 -37 36.46 -37 30 C-41.95 30 -46.9 30 -52 30 Z M-10 30 C-10 36.27 -10 42.54 -10 49 C-5.38 49 -0.76 49 4 49 C4 42.73 4 36.46 4 30 C-0.62 30 -5.24 30 -10 30 Z M-30 35 C-30 39.62 -30 44.24 -30 49 C-28.02 49 -26.04 49 -24 49 C-24 44.38 -24 39.76 -24 35 C-25.98 35 -27.96 35 -30 35 Z M-23 35 C-23 39.62 -23 44.24 -23 49 C-21.02 49 -19.04 49 -17 49 C-17 44.38 -17 39.76 -17 35 C-18.98 35 -20.96 35 -23 35 Z " fill="#BCBCBC" transform="translate(61,7)"/>
<path d="M0 0 C0 4.95 0 9.9 0 15 C1.32 15 2.64 15 4 15 C4.79822348 24.37912587 5.12873737 33.58786748 5 43 C4.67 43 4.34 43 4 43 C4 38.71 4 34.42 4 30 C-0.95 30 -5.9 30 -11 30 C-11 29.67 -11 29.34 -11 29 C-4.565 28.505 -4.565 28.505 2 28 C2 24.37 2 20.74 2 17 C-2.29 16.67 -6.58 16.34 -11 16 C-11 15.67 -11 15.34 -11 15 C-7.7 15 -4.4 15 -1 15 C-1 10.71 -1 6.42 -1 2 C-2.18553467 2.21205078 -3.37106934 2.42410156 -4.5925293 2.64257812 C-8.99931725 3.42962675 -13.40709267 4.21101873 -17.81518555 4.99072266 C-19.72138349 5.32870216 -21.62731173 5.66820654 -23.53295898 6.00927734 C-26.27518009 6.49980242 -29.01833049 6.98480072 -31.76171875 7.46875 C-32.61086349 7.62186646 -33.46000824 7.77498291 -34.33488464 7.93273926 C-38.26945771 8.6216144 -41.98665251 9.19977552 -46 9 C-46 10.98 -46 12.96 -46 15 C-42.7 15 -39.4 15 -36 15 C-36 26.22 -36 37.44 -36 49 C-36.33 49 -36.66 49 -37 49 C-37 38.11 -37 27.22 -37 16 C-41.29 16 -45.58 16 -50 16 C-50 19.96 -50 23.92 -50 28 C-50.33 28 -50.66 28 -51 28 C-51 23.71 -51 19.42 -51 15 C-49.68 15 -48.36 15 -47 15 C-47 12.69 -47 10.38 -47 8 C-46.01 8 -45.02 8 -44 8 C-44 5.69 -44 3.38 -44 1 C-38.055183 0.85728188 -32.1103587 0.71487298 -26.16552734 0.57275391 C-24.14208779 0.52433693 -22.11865028 0.47583463 -20.09521484 0.42724609 C-17.19108602 0.35752424 -14.28695006 0.28810667 -11.3828125 0.21875 C-10.47443634 0.19687622 -9.56606018 0.17500244 -8.63015747 0.15246582 C-7.78943695 0.13244507 -6.94871643 0.11242432 -6.08251953 0.09179688 C-4.96999313 0.06514954 -4.96999313 0.06514954 -3.83499146 0.03796387 C-2.55687184 0.01152104 -1.27839312 0 0 0 Z M-43 2 C-43 3.65 -43 5.3 -43 7 C-33.21775739 6.37514309 -23.64205883 4.68656475 -14 3 C-14 2.67 -14 2.34 -14 2 C-23.57 2 -33.14 2 -43 2 Z " fill="#ADADAD" transform="translate(61,7)"/>
<path d="M0 0 C5.61 0 11.22 0 17 0 C17 0.33 17 0.66 17 1 C11.39 1 5.78 1 0 1 C0 0.67 0 0.34 0 0 Z " fill="#B8B8B8" transform="translate(29,33)"/>
<path d="M0 0 C5.61 0 11.22 0 17 0 C17 0.33 17 0.66 17 1 C11.39 1 5.78 1 0 1 C0 0.67 0 0.34 0 0 Z " fill="#A0A0A0" transform="translate(29,29)"/>
<path d="M0 0 C5.61 0 11.22 0 17 0 C17 0.33 17 0.66 17 1 C11.39 1 5.78 1 0 1 C0 0.67 0 0.34 0 0 Z " fill="#B7B7B7" transform="translate(29,25)"/>
</svg>
