<svg xmlns="http://www.w3.org/2000/svg" xmlns:xlink="http://www.w3.org/1999/xlink" version="1.1" width="256" height="256" viewBox="0 0 256 256" xml:space="preserve">
<g style="stroke: none; stroke-width: 0; stroke-dasharray: none; stroke-linecap: butt; stroke-linejoin: miter; stroke-miterlimit: 10; fill: none; fill-rule: nonzero; opacity: 1;" transform="translate(1.4065934065934016 1.4065934065934016) scale(2.81 2.81)">
	<path d="M 1.266 90 c -0.366 0 -0.719 -0.201 -0.895 -0.551 c -0.248 -0.493 -0.049 -1.095 0.444 -1.343 L 86.51 45 L 0.816 1.894 c -0.494 -0.249 -0.692 -0.85 -0.444 -1.343 C 0.62 0.058 1.221 -0.142 1.714 0.106 l 87.47 44 c 0.338 0.17 0.551 0.516 0.551 0.894 s -0.213 0.724 -0.551 0.894 l -87.47 44 C 1.57 89.966 1.417 90 1.266 90 z" style="stroke: none; stroke-width: 1; stroke-dasharray: none; stroke-linecap: butt; stroke-linejoin: miter; stroke-miterlimit: 10; fill: rgb(0,0,0); fill-rule: nonzero; opacity: 1;" transform=" matrix(1 0 0 1 0 0) " stroke-linecap="round"/>
</g>
</svg>