<?xml version="1.0" encoding="UTF-8"?>
<svg version="1.1" xmlns="http://www.w3.org/2000/svg" width="78" height="71">
<path d="M0 0 C1.57140747 0.13196777 1.57140747 0.13196777 3.17456055 0.26660156 C6.74734166 0.59210116 10.30968971 0.97629863 13.875 1.375 C15.70804688 1.56449219 15.70804688 1.56449219 17.578125 1.7578125 C19.32996094 1.95117188 19.32996094 1.95117188 21.1171875 2.1484375 C22.17534668 2.26364746 23.23350586 2.37885742 24.32373047 2.49755859 C27 3 27 3 30 5 C27.56212615 4.8590651 25.12482147 4.71245458 22.6875 4.5625 C21.99720703 4.52318359 21.30691406 4.48386719 20.59570312 4.44335938 C17.52838465 4.25072585 14.93031848 3.97677283 12 3 C12 11.58 12 20.16 12 29 C18.27 29 24.54 29 31 29 C31 32.63 31 36.26 31 40 C8.89 40 -13.22 40 -36 40 C-34.02 39.505 -34.02 39.505 -32 39 C-32 29.43 -32 19.86 -32 10 C-32.66 9.67 -33.32 9.34 -34 9 C-30.02967995 7.47582949 -26.04754702 5.9851938 -22.0625 4.5 C-20.94552734 4.07074219 -19.82855469 3.64148438 -18.67773438 3.19921875 C-12.17211078 0.79538129 -6.90751873 -0.69557059 0 0 Z M-13.36328125 2.71484375 C-14.81637695 3.24948242 -14.81637695 3.24948242 -16.29882812 3.79492188 C-17.29333984 4.17197266 -18.28785156 4.54902344 -19.3125 4.9375 C-20.32634766 5.31068359 -21.34019531 5.68386719 -22.38476562 6.06835938 C-27.02094957 7.47345911 -27.02094957 7.47345911 -31 10 C-31.08775605 12.14558827 -31.10695219 14.29404421 -31.09765625 16.44140625 C-31.09443359 17.74658203 -31.09121094 19.05175781 -31.08789062 20.39648438 C-31.07953401 21.7851569 -31.07106905 23.17382877 -31.0625 24.5625 C-31.05748666 25.95507656 -31.05292347 27.34765481 -31.04882812 28.74023438 C-31.03699434 32.1601987 -31.0205088 35.58007844 -31 39 C-29.02 39 -27.04 39 -25 39 C-25 38.01 -25 37.02 -25 36 C-24.34 36 -23.68 36 -23 36 C-23 29.73 -23 23.46 -23 17 C-19.7 17 -16.4 17 -13 17 C-13 23.27 -13 29.54 -13 36 C-12.34 36 -11.68 36 -11 36 C-11 36.99 -11 37.98 -11 39 C-3.74 39 3.52 39 11 39 C11 27.12 11 15.24 11 3 C-1.4733452 0.60394625 -1.4733452 0.60394625 -13.36328125 2.71484375 Z M-22 19 C-22 24.61 -22 30.22 -22 36 C-19.36 36 -16.72 36 -14 36 C-14 30.39 -14 24.78 -14 19 C-16.64 19 -19.28 19 -22 19 Z M12 30 C12 32.97 12 35.94 12 39 C13.65 39 15.3 39 17 39 C17.33 36.03 17.66 33.06 18 30 C16.02 30 14.04 30 12 30 Z M19 30 C19 32.97 19 35.94 19 39 C20.32 39 21.64 39 23 39 C23 36.03 23 33.06 23 30 C21.68 30 20.36 30 19 30 Z M25 30 C25 32.97 25 35.94 25 39 C26.32 39 27.64 39 29 39 C29 36.03 29 33.06 29 30 C27.68 30 26.36 30 25 30 Z M-24 37 C-24 37.66 -24 38.32 -24 39 C-20.04 39 -16.08 39 -12 39 C-12 38.34 -12 37.68 -12 37 C-15.96 37 -19.92 37 -24 37 Z " fill="#B0B0B0" transform="translate(38,14)"/>
<path d="M0 0 C3.96 0 7.92 0 12 0 C12 3.63 12 7.26 12 11 C8.04 11 4.08 11 0 11 C0 7.37 0 3.74 0 0 Z M1 1 C1 3.97 1 6.94 1 10 C3.97 10 6.94 10 10 10 C10 7.03 10 4.06 10 1 C7.03 1 4.06 1 1 1 Z " fill="#B8B8B8" transform="translate(32,30)"/>
<path d="M0 0 C2 1 2 1 2 1 Z " fill="#D0D0D0" transform="translate(21,44)"/>
<path d="M0 0 C2 1 2 1 2 1 Z " fill="#C0C0C0" transform="translate(2,24)"/>
</svg>
