<?xml version="1.0" encoding="UTF-8"?>
<svg version="1.1" xmlns="http://www.w3.org/2000/svg" width="89" height="73">
<path d="M0 0 C3.31248187 -0.02888146 6.62493167 -0.04675799 9.9375 -0.0625 C10.88302734 -0.07087891 11.82855469 -0.07925781 12.80273438 -0.08789062 C14.15141602 -0.09272461 14.15141602 -0.09272461 15.52734375 -0.09765625 C16.77632446 -0.10551147 16.77632446 -0.10551147 18.05053711 -0.11352539 C20 0 20 0 21 1 C22.48638992 1.15655027 23.97949127 1.25066943 25.47265625 1.31640625 C26.82133789 1.37924805 26.82133789 1.37924805 28.19726562 1.44335938 C29.61555664 1.50233398 29.61555664 1.50233398 31.0625 1.5625 C32.01189453 1.60568359 32.96128906 1.64886719 33.93945312 1.69335938 C36.29281353 1.79979276 38.64628354 1.90181008 41 2 C41.495 4.97 41.495 4.97 42 8 C40.68 8 39.36 8 38 8 C38 13.94 38 19.88 38 26 C39.32 26 40.64 26 42 26 C42 27.65 42 29.3 42 31 C41.34 31 40.68 31 40 31 C40.495 32.0209375 40.495 32.0209375 41 33.0625 C42.82225868 38.41538487 42.45397487 42.93867683 40 48 C40.99 48.33 41.98 48.66 43 49 C20.95137056 50.2765453 -0.9441945 49.75347511 -23 49 C-21.02 48.505 -21.02 48.505 -19 48 C-19 46.68 -19 45.36 -19 44 C-19.66 44 -20.32 44 -21 44 C-21.16682272 39.07872966 -21.24828052 35.49656104 -19 31 C-19.99 31 -20.98 31 -22 31 C-21.67 29.35 -21.34 27.7 -21 26 C-19.68 25.67 -18.36 25.34 -17 25 C-17 19.72 -17 14.44 -17 9 C-18.65 8.67 -20.3 8.34 -22 8 C-21.34 6.02 -20.68 4.04 -20 2 C-13.4 2 -6.8 2 0 2 C0 1.34 0 0.68 0 0 Z M2 1 C-0.10540926 6.26213521 -0.10540926 6.26213521 0 9 C6.6 9 13.2 9 20 9 C20.4472136 3.52174919 20.4472136 3.52174919 19 1 C13.39 1 7.78 1 2 1 Z M-19 3 C-19.33 4.32 -19.66 5.64 -20 7 C-13.73 7 -7.46 7 -1 7 C-0.67 5.68 -0.34 4.36 0 3 C-6.27 3 -12.54 3 -19 3 Z M21 3 C21 4.32 21 5.64 21 7 C27.6 7 34.2 7 41 7 C40.67 5.68 40.34 4.36 40 3 C33.73 3 27.46 3 21 3 Z M-15 8 C-15 12.29 -15 16.58 -15 21 C-9.72 21 -4.44 21 1 21 C1 17.37 1 13.74 1 10 C0.34 10 -0.32 10 -1 10 C-1 9.34 -1 8.68 -1 8 C-5.62 8 -10.24 8 -15 8 Z M22 8 C22 8.66 22 9.32 22 10 C21.34 10 20.68 10 20 10 C20 13.63 20 17.26 20 21 C25.28 21 30.56 21 36 21 C36 16.71 36 12.42 36 8 C31.38 8 26.76 8 22 8 Z M2 10 C2 22.54 2 35.08 2 48 C2.66 48 3.32 48 4 48 C5.10514766 44.68455701 5.32107631 41.79589889 5.5625 38.3125 C5.64628906 37.13300781 5.73007812 35.95351563 5.81640625 34.73828125 C5.87699219 33.83464844 5.93757813 32.93101563 6 32 C8.97 32 11.94 32 15 32 C15.04898438 32.98742187 15.09796875 33.97484375 15.1484375 34.9921875 C15.22320312 36.27351563 15.29796875 37.55484375 15.375 38.875 C15.44460937 40.15117188 15.51421875 41.42734375 15.5859375 42.7421875 C15.67241106 46.08061699 15.67241106 46.08061699 18 48 C19.03987597 43.75054147 19.12989631 39.64072144 19.09765625 35.29296875 C19.0962413 34.56757401 19.09482635 33.84217926 19.09336853 33.09480286 C19.08779931 30.7923255 19.07525261 28.48994765 19.0625 26.1875 C19.05748102 24.62044412 19.05291881 23.0533867 19.04882812 21.48632812 C19.03869354 17.65748349 19.01911241 13.82885231 19 10 C13.39 10 7.78 10 2 10 Z M-15 22 C-15 23.32 -15 24.64 -15 26 C-13.68 26 -12.36 26 -11 26 C-11 24.68 -11 23.36 -11 22 C-12.32 22 -13.64 22 -15 22 Z M-9 22 C-9 23.32 -9 24.64 -9 26 C-7.35 25.67 -5.7 25.34 -4 25 C-4.33 24.01 -4.66 23.02 -5 22 C-6.32 22 -7.64 22 -9 22 Z M-3 22 C-3 23.32 -3 24.64 -3 26 C-1.68 26 -0.36 26 1 26 C1 24.68 1 23.36 1 22 C-0.32 22 -1.64 22 -3 22 Z M20 22 C20 23.32 20 24.64 20 26 C21.32 26 22.64 26 24 26 C24 24.68 24 23.36 24 22 C22.68 22 21.36 22 20 22 Z M26 22 C25.67 22.99 25.34 23.98 25 25 C27.475 25.495 27.475 25.495 30 26 C30 24.68 30 23.36 30 22 C28.68 22 27.36 22 26 22 Z M32 22 C32 23.32 32 24.64 32 26 C33.32 26 34.64 26 36 26 C36 24.68 36 23.36 36 22 C34.68 22 33.36 22 32 22 Z M-20 27 C-20 27.66 -20 28.32 -20 29 C-13.07 29 -6.14 29 1 29 C1 28.34 1 27.68 1 27 C-5.93 27 -12.86 27 -20 27 Z M20 27 C20 27.66 20 28.32 20 29 C26.93 29 33.86 29 41 29 C41 28.34 41 27.68 41 27 C34.07 27 27.14 27 20 27 Z M-18 31 C-18 32.65 -18 34.3 -18 36 C-16.68 36 -15.36 36 -14 36 C-14.33 38.64 -14.66 41.28 -15 44 C-15.99 44 -16.98 44 -18 44 C-18 45.32 -18 46.64 -18 48 C-11.73 48 -5.46 48 1 48 C1 42.39 1 36.78 1 31 C-5.27 31 -11.54 31 -18 31 Z M20 31 C20 36.61 20 42.22 20 48 C26.27 48 32.54 48 39 48 C39 46.68 39 45.36 39 44 C37.68 44 36.36 44 35 44 C35 41.36 35 38.72 35 36 C36.32 35.67 37.64 35.34 39 35 C39 33.68 39 32.36 39 31 C32.73 31 26.46 31 20 31 Z M7 33 C7 36.96 7 40.92 7 45 C9.31 45 11.62 45 14 45 C14 41.04 14 37.08 14 33 C11.69 33 9.38 33 7 33 Z M-20 37 C-20 38.65 -20 40.3 -20 42 C-18.68 42 -17.36 42 -16 42 C-16 40.35 -16 38.7 -16 37 C-17.32 37 -18.64 37 -20 37 Z M37 37 C36.67 38.65 36.34 40.3 36 42 C37.32 42 38.64 42 40 42 C40 40.35 40 38.7 40 37 C39.01 37 38.02 37 37 37 Z M5 47 C5 47.33 5 47.66 5 48 C8.3 48 11.6 48 15 48 C15 47.67 15 47.34 15 47 C11.7 47 8.4 47 5 47 Z " fill="#ADADAD" transform="translate(33,10)"/>
<path d="M0 0 C0.66 0 1.32 0 2 0 C2 5.94 2 11.88 2 18 C3.32 18 4.64 18 6 18 C6 19.65 6 21.3 6 23 C5.34 23 4.68 23 4 23 C4.495 24.0209375 4.495 24.0209375 5 25.0625 C6.82225868 30.41538487 6.45397487 34.93867683 4 40 C4.99 40.33 5.98 40.66 7 41 C2.72964262 41.19955787 -1.54128118 41.38240176 -5.8125 41.5625 C-7.6059082 41.64661133 -7.6059082 41.64661133 -9.43554688 41.73242188 C-16.72382892 42.03030806 -23.7572713 41.88900254 -31 41 C-32.0483284 37.26602644 -31.94639687 34.19097844 -31.625 30.3125 C-31.53476562 29.15363281 -31.44453125 27.99476562 -31.3515625 26.80078125 C-31 24 -31 24 -30 23 C-28.50261876 22.9020943 -27.00057108 22.87025136 -25.5 22.875 C-24.6853125 22.87242188 -23.870625 22.86984375 -23.03125 22.8671875 C-21 23 -21 23 -20 24 C-19.76472227 26.34987262 -19.58613583 28.70556039 -19.4375 31.0625 C-19.35371094 32.35285156 -19.26992188 33.64320312 -19.18359375 34.97265625 C-19.12300781 35.97167969 -19.06242187 36.97070312 -19 38 C-17.6523287 36.8815275 -17.6523287 36.8815275 -17.91821289 33.99658203 C-17.9361792 32.68028809 -17.95414551 31.36399414 -17.97265625 30.0078125 C-17.98530559 28.56640868 -17.99766632 27.1250023 -18.00976562 25.68359375 C-18.03457701 23.40340289 -18.06252429 21.12334324 -18.09594727 18.84326172 C-18.1261515 16.64810342 -18.14392817 14.45311236 -18.16015625 12.2578125 C-18.17699463 10.9392627 -18.19383301 9.62071289 -18.21118164 8.26220703 C-18 5 -18 5 -16 2 C-16 5.63 -16 9.26 -16 13 C-10.72 13 -5.44 13 0 13 C0 8.71 0 4.42 0 0 Z M-16 14 C-16 15.32 -16 16.64 -16 18 C-14.68 18 -13.36 18 -12 18 C-12 16.68 -12 15.36 -12 14 C-13.32 14 -14.64 14 -16 14 Z M-10 14 C-10.33 14.99 -10.66 15.98 -11 17 C-8.525 17.495 -8.525 17.495 -6 18 C-6 16.68 -6 15.36 -6 14 C-7.32 14 -8.64 14 -10 14 Z M-4 14 C-4 15.32 -4 16.64 -4 18 C-2.68 18 -1.36 18 0 18 C0 16.68 0 15.36 0 14 C-1.32 14 -2.64 14 -4 14 Z M-16 19 C-16 19.66 -16 20.32 -16 21 C-9.07 21 -2.14 21 5 21 C5 20.34 5 19.68 5 19 C-1.93 19 -8.86 19 -16 19 Z M-16 23 C-16 28.61 -16 34.22 -16 40 C-9.73 40 -3.46 40 3 40 C3 38.68 3 37.36 3 36 C1.68 36 0.36 36 -1 36 C-1 33.36 -1 30.72 -1 28 C0.32 27.67 1.64 27.34 3 27 C3 25.68 3 24.36 3 23 C-3.27 23 -9.54 23 -16 23 Z M-29 25 C-29 28.96 -29 32.92 -29 37 C-26.69 37 -24.38 37 -22 37 C-22 33.04 -22 29.08 -22 25 C-24.31 25 -26.62 25 -29 25 Z M1 29 C0.67 30.65 0.34 32.3 0 34 C1.32 34 2.64 34 4 34 C4 32.35 4 30.7 4 29 C3.01 29 2.02 29 1 29 Z " fill="#BEBEBE" transform="translate(69,18)"/>
<path d="M0 0 C7.59 0 15.18 0 23 0 C23 0.66 23 1.32 23 2 C16.73 2 10.46 2 4 2 C4 3.65 4 5.3 4 7 C5.32 7 6.64 7 8 7 C8.125 12.75 8.125 12.75 7 15 C6.01 15 5.02 15 4 15 C4 16.32 4 17.64 4 19 C10.27 19 16.54 19 23 19 C23 19.33 23 19.66 23 20 C15.08 20 7.16 20 -1 20 C0.32 19.67 1.64 19.34 3 19 C3 17.68 3 16.36 3 15 C2.34 15 1.68 15 1 15 C0.83317728 10.07872966 0.75171948 6.49656104 3 2 C2.01 2 1.02 2 0 2 C0 1.34 0 0.68 0 0 Z M2 8 C2 9.65 2 11.3 2 13 C3.32 13 4.64 13 6 13 C6 11.35 6 9.7 6 8 C4.68 8 3.36 8 2 8 Z " fill="#BDBDBD" transform="translate(11,39)"/>
<path d="M0 0 C0.8146875 0.00257812 1.629375 0.00515625 2.46875 0.0078125 C3.2834375 0.00523438 4.098125 0.00265625 4.9375 0 C6.96875 0.1328125 6.96875 0.1328125 7.96875 1.1328125 C8.04194621 3.82936104 8.06117537 6.49972708 8.03125 9.1953125 C8.02673828 9.95392578 8.02222656 10.71253906 8.01757812 11.49414062 C8.0057568 13.37373121 7.98782078 15.25328149 7.96875 17.1328125 C6.15549449 17.01929733 4.34311643 16.89168289 2.53125 16.7578125 C1.52191406 16.68820313 0.51257812 16.61859375 -0.52734375 16.546875 C-1.35363281 16.41023438 -2.17992187 16.27359375 -3.03125 16.1328125 C-4.49447678 13.20635893 -3.91914453 10.80675731 -3.65625 7.5703125 C-3.56601562 6.39339844 -3.47578125 5.21648438 -3.3828125 4.00390625 C-2.91588364 0.19065393 -2.91588364 0.19065393 0 0 Z M-1.03125 2.1328125 C-1.03125 6.0928125 -1.03125 10.0528125 -1.03125 14.1328125 C1.27875 14.1328125 3.58875 14.1328125 5.96875 14.1328125 C5.96875 10.1728125 5.96875 6.2128125 5.96875 2.1328125 C3.65875 2.1328125 1.34875 2.1328125 -1.03125 2.1328125 Z " fill="#C7C7C7" transform="translate(41.03125,40.8671875)"/>
<path d="M0 0 C6.93 0 13.86 0 21 0 C21.33 0.66 21.66 1.32 22 2 C21.34 2 20.68 2 20 2 C20.33 2.680625 20.66 3.36125 21 4.0625 C22.17307315 7.50840238 22.14180493 10.38397422 22 14 C19.50935112 14.68707555 17.62113708 15 15 15 C15 12.36 15 9.72 15 7 C15.99 6.67 16.98 6.34 18 6 C18.33 4.68 18.66 3.36 19 2 C12.73 2 6.46 2 0 2 C0 1.34 0 0.68 0 0 Z M17 8 C16.67 9.65 16.34 11.3 16 13 C17.32 13 18.64 13 20 13 C20 11.35 20 9.7 20 8 C19.01 8 18.02 8 17 8 Z " fill="#C5C5C5" transform="translate(53,39)"/>
<path d="M0 0 C3.3 0 6.6 0 10 0 C10.04241723 2.33294775 10.04092937 4.66702567 10 7 C9 8 9 8 7.1875 8.1328125 C6.465625 8.13023438 5.74375 8.12765625 5 8.125 C4.278125 8.12757812 3.55625 8.13015625 2.8125 8.1328125 C1 8 1 8 0 7 C-0.04092937 4.66702567 -0.04241723 2.33294775 0 0 Z M2 1 C2 2.65 2 4.3 2 6 C3.98 6 5.96 6 8 6 C8 4.35 8 2.7 8 1 C6.02 1 4.04 1 2 1 Z " fill="#C5C5C5" transform="translate(21,46)"/>
<path d="M0 0 C0.66 0 1.32 0 2 0 C2 1.65 2 3.3 2 5 C2.99 5.33 3.98 5.66 5 6 C0.72964262 6.19955787 -3.54128118 6.38240176 -7.8125 6.5625 C-9.6059082 6.64661133 -9.6059082 6.64661133 -11.43554688 6.73242188 C-18.72382892 7.03030806 -25.7572713 6.88900254 -33 6 C-33 5.67 -33 5.34 -33 5 C-29.37 5 -25.74 5 -22 5 C-21.67 4.34 -21.34 3.68 -21 3 C-21 3.66 -21 4.32 -21 5 C-13.74 5 -6.48 5 1 5 C0.505 2.525 0.505 2.525 0 0 Z " fill="#B2B2B2" transform="translate(71,53)"/>
<path d="M0 0 C2.4294516 3.6441774 2.16179575 5.71241272 2 10 C-1.63 10 -5.26 10 -9 10 C-9.4856661 2.59359191 -9.4856661 2.59359191 -7.3125 -0.0625 C-4.37831087 -1.25203613 -2.95411203 -1.08835706 0 0 Z M-4 0 C-6.11922127 1.08743288 -6.11922127 1.08743288 -8 3 C-8.33397787 6.12586875 -8.33397787 6.12586875 -8 9 C-5.36 9 -2.72 9 0 9 C0 6.69 0 4.38 0 2 C-1.32 1.34 -2.64 0.68 -4 0 Z " fill="#BBBBBB" transform="translate(47,22)"/>
<path d="M0 0 C2.97 0 5.94 0 9 0 C9 2.64 9 5.28 9 8 C6.03 8 3.06 8 0 8 C0 5.36 0 2.72 0 0 Z M1 1 C1 2.65 1 4.3 1 6 C3.31 6 5.62 6 8 6 C8 4.35 8 2.7 8 1 C5.69 1 3.38 1 1 1 Z " fill="#B5B5B5" transform="translate(56,46)"/>
<path d="M0 0 C0.33 0 0.66 0 1 0 C1 5.28 1 10.56 1 16 C-2.63 15.67 -6.26 15.34 -10 15 C-7.23776722 12.23776722 -4.79293383 12.42143709 -1 12 C-0.67 8.04 -0.34 4.08 0 0 Z " fill="#CECECE" transform="translate(48,42)"/>
<path d="M0 0 C0.66 0.33 1.32 0.66 2 1 C2 3.31 2 5.62 2 8 C-1.01031744 8.93423645 -1.86650268 9.04449911 -5 8 C-3.35 7.67 -1.7 7.34 0 7 C0 4.69 0 2.38 0 0 Z " fill="#C9C9C9" transform="translate(73,45)"/>
</svg>
