<?xml version="1.0" encoding="UTF-8"?>
<svg version="1.1" xmlns="http://www.w3.org/2000/svg" width="84" height="58">
<path d="M0 0 C1.33463261 0.33334456 2.66926781 0.66667879 4.00390625 1 C5.17824219 1.33 6.35257813 1.66 7.5625 2 C8.76003906 2.33 9.95757812 2.66 11.19140625 3 C14 4 14 4 15 6 C15.08683445 8.77160626 15.1155579 11.51774765 15.09765625 14.2890625 C15.0962413 15.10748627 15.09482635 15.92591003 15.09336853 16.76913452 C15.0877629 19.38779325 15.07520948 22.00636704 15.0625 24.625 C15.05748572 26.39843627 15.05292269 28.17187387 15.04882812 29.9453125 C15.03779164 34.29690782 15.02052325 38.6484395 15 43 C15.99 43.33 16.98 43.66 18 44 C0.18 44 -17.64 44 -36 44 C-34.68 43.34 -33.36 42.68 -32 42 C-31.67 29.46 -31.34 16.92 -31 4 C-27.74125 2.96875 -24.4825 1.9375 -21.125 0.875 C-20.11969238 0.5435498 -19.11438477 0.21209961 -18.07861328 -0.12939453 C-11.39638049 -2.1365359 -6.65569666 -1.93234436 0 0 Z M-30 5 C-30 17.54 -30 30.08 -30 43 C-29.34 43 -28.68 43 -28 43 C-27.34 31.45 -26.68 19.9 -26 8 C-20.18840499 7.35426722 -14.95773217 6.86330753 -9.1875 6.875 C-7.29064453 6.87113281 -7.29064453 6.87113281 -5.35546875 6.8671875 C0.10687637 7.03375228 5.55399295 7.54616608 11 8 C11 19.55 11 31.1 11 43 C11.66 43 12.32 43 13 43 C13 30.46 13 17.92 13 5 C-8.5 -1.07715017 -8.5 -1.07715017 -30 5 Z M-26 9 C-26 9.99 -26 10.98 -26 12 C-14.45 12 -2.9 12 9 12 C9 11.01 9 10.02 9 9 C-3.24434455 6.60669007 -13.75565545 6.60669007 -26 9 Z M-26 13 C-26 22.9 -26 32.8 -26 43 C-24.35 43 -22.7 43 -21 43 C-20.83071761 40.31264212 -20.6645047 37.62515116 -20.5 34.9375 C-20.45230469 34.18533203 -20.40460937 33.43316406 -20.35546875 32.65820312 C-20.07891598 28.09508249 -19.9514323 23.57143477 -20 19 C-17.36 19 -14.72 19 -12 19 C-12.020625 20.134375 -12.04125 21.26875 -12.0625 22.4375 C-12.41577477 25.81575674 -12.41577477 25.81575674 -11 27 C-9.00041636 27.04080783 -6.99954746 27.04254356 -5 27 C-5 25.68 -5 24.36 -5 23 C-2.03 23 0.94 23 4 23 C4 29.27 4 35.54 4 42 C5.65 42.33 7.3 42.66 9 43 C9 33.1 9 23.2 9 13 C-2.55 13 -14.1 13 -26 13 Z M-19 21 C-19 22.98 -19 24.96 -19 27 C-17.02 27 -15.04 27 -13 27 C-13 25.02 -13 23.04 -13 21 C-14.98 21 -16.96 21 -19 21 Z M-4 24 C-4 27.63 -4 31.26 -4 35 C-2.02 35 -0.04 35 2 35 C2 31.37 2 27.74 2 24 C0.02 24 -1.96 24 -4 24 Z M-19 28 C-19 32.95 -19 37.9 -19 43 C-17.02 43 -15.04 43 -13 43 C-13 38.05 -13 33.1 -13 28 C-14.98 28 -16.96 28 -19 28 Z M-11 28 C-11.38133299 29.9914056 -11.71325582 31.99279077 -12 34 C-10.9404123 35.28322547 -10.9404123 35.28322547 -8.5 35.125 C-6.0595877 35.28322547 -6.0595877 35.28322547 -5 34 C-4.95919217 32.00041636 -4.95745644 29.99954746 -5 28 C-6.98 28 -8.96 28 -11 28 Z M-12 36 C-12 37.98 -12 39.96 -12 42 C-9.69 42 -7.38 42 -5 42 C-5 40.02 -5 38.04 -5 36 C-7.31 36 -9.62 36 -12 36 Z M-4 36 C-4 37.98 -4 39.96 -4 42 C-2.02 42 -0.04 42 2 42 C2 40.02 2 38.04 2 36 C0.02 36 -1.96 36 -4 36 Z " fill="#B8B8B8" transform="translate(42,6)"/>
<path d="M0 0 C2.3431213 0.25561323 4.67843403 0.59270772 7 1 C8.61301773 4.22603545 8.12053599 7.74710038 8.09765625 11.2890625 C8.0962413 12.10748627 8.09482635 12.92591003 8.09336853 13.76913452 C8.0877629 16.38779325 8.07520948 19.00636704 8.0625 21.625 C8.05748572 23.39843627 8.05292269 25.17187387 8.04882812 26.9453125 C8.03779164 31.29690782 8.02052325 35.6484395 8 40 C9.485 40.495 9.485 40.495 11 41 C3.74 41 -3.52 41 -11 41 C-11 40.34 -11 39.68 -11 39 C-9.02 39 -7.04 39 -5 39 C-5 37.02 -5 35.04 -5 33 C-6.98 33 -8.96 33 -11 33 C-11 32.67 -11 32.34 -11 32 C-9.02 32 -7.04 32 -5 32 C-5 28.37 -5 24.74 -5 21 C-7.31 21 -9.62 21 -12 21 C-12 20.67 -12 20.34 -12 20 C-9.03 20 -6.06 20 -3 20 C-2.67 26.27 -2.34 32.54 -2 39 C-0.68 39.33 0.64 39.66 2 40 C2 30.1 2 20.2 2 10 C2.66 10 3.32 10 4 10 C4 19.9 4 29.8 4 40 C4.66 40 5.32 40 6 40 C6 27.46 6 14.92 6 2 C3.03 1.505 3.03 1.505 0 1 C0 0.67 0 0.34 0 0 Z " fill="#C5C5C5" transform="translate(49,9)"/>
</svg>
